<svg width="512" height="512" viewBox="0 0 512 512" fill="none" xmlns="http://www.w3.org/2000/svg">
  <rect width="512" height="512" rx="32" fill="#0F1115"/>
  <g stroke-linecap="round" stroke-linejoin="round">
    <path d="M153 225L245 167L276 228L153 225Z" stroke="#0E80CC" stroke-width="8"/>
    <path d="M245 167L307 136L337 195L276 228L245 167Z" stroke="#19B8F5" stroke-width="8"/>
    <path d="M307 136L379 165L276 228L307 136Z" stroke="#23C4F7" stroke-width="8"/>
    <path d="M153 225L233 264L276 228L153 225Z" stroke="#1297E2" stroke-width="8"/>
    <path d="M233 264L338 264L276 228L233 264Z" stroke="#1AB8F5" stroke-width="8"/>
    <path d="M338 264L413 206L276 228L338 264Z" stroke="#20BBF6" stroke-width="8"/>
    <path d="M153 225L290 309L233 264L153 225Z" stroke="#0E80CC" stroke-width="8"/>
    <path d="M233 264L290 309L338 264L233 264Z" stroke="#0E80CC" stroke-width="8"/>
    <path d="M338 264L413 206L338 310L338 264Z" stroke="#19B8F5" stroke-width="8"/>
    <path d="M290 309L338 310L338 264L290 309Z" stroke="#0E80CC" stroke-width="8"/>
    <path d="M183 159L307 136L245 167L183 159Z" stroke="#19B8F5" stroke-width="8" opacity="0"/>
    <path d="M183 159L276 228" stroke="#F4F4F6" stroke-width="8"/>
    <path d="M260 215L379 165" stroke="#F4F4F6" stroke-width="8"/>
    <path d="M338 264L183 159" stroke="#F4F4F6" stroke-width="8"/>
    <path d="M379 165L413 206" stroke="#F4F4F6" stroke-width="8"/>
  </g>
  <circle cx="153" cy="225" r="19" fill="#0E80CC"/>
  <circle cx="183" cy="159" r="16" fill="#F4F4F6"/>
  <circle cx="245" cy="167" r="18" fill="#23C4F7"/>
  <circle cx="276" cy="228" r="17" fill="#F4F4F6"/>
  <circle cx="307" cy="136" r="17" fill="#23C4F7"/>
  <circle cx="336" cy="195" r="20" fill="#23C4F7"/>
  <circle cx="379" cy="165" r="16" fill="#F4F4F6"/>
  <circle cx="413" cy="206" r="18" fill="#23C4F7"/>
  <circle cx="233" cy="264" r="18" fill="#1297E2"/>
  <g fill="#F4F4F6">
    <path d="M99.44 379V294.27H152.69V306.38H114.11V329.75H149.95V341.81H114.11V366.83H153.08V379H99.44Z"/>
    <path d="M168.87 379V316.18H183.1V379H168.87ZM176.01 306.48C173.45 306.48 171.26 305.63 169.44 303.93C167.65 302.19 166.75 300.13 166.75 297.74C166.75 295.32 167.65 293.26 169.44 291.56C171.26 289.83 173.45 288.96 176.01 288.96C178.58 288.96 180.75 289.83 182.54 291.56C184.36 293.26 185.27 295.32 185.27 297.74C185.27 300.13 184.36 302.19 182.54 303.93C180.75 305.63 178.58 306.48 176.01 306.48Z"/>
    <path d="M226.99 380.18C220.95 380.18 215.73 378.86 211.32 376.23C206.94 373.57 203.56 369.84 201.2 365.03C198.87 360.19 197.71 354.5 197.71 347.94C197.71 341.31 198.89 335.54 201.26 330.63C203.65 325.68 207.11 321.86 211.66 319.18C216.2 316.47 221.69 315.12 228.12 315.12C233.32 315.12 237.95 316.06 242.01 317.92C246.07 319.75 249.26 322.4 251.58 325.86C253.93 329.32 255.1 333.45 255.1 338.24C255.1 341.31 254.41 344.18 253.04 346.87C251.67 349.56 249.61 351.74 246.87 353.41C244.14 355.04 240.72 355.86 236.62 355.86C233.87 355.86 231.29 355.35 228.88 354.33C226.5 353.28 224.44 351.58 222.71 349.21C221.01 346.81 220.16 343.63 220.16 339.69C220.16 336.03 220.94 332.95 222.51 330.46C224.08 327.97 226.12 326.09 228.65 324.82C231.17 323.52 233.82 322.87 236.58 322.87C239.01 322.87 241.04 323.24 242.67 323.98C244.3 324.7 245.62 325.57 246.63 326.6V316.18H260.86V379H247.22V368.93C246.07 370.49 244.32 372.02 241.97 373.52C239.61 375.01 236.43 376.23 232.43 377.17C228.47 379.17 224.65 380.18 226.99 380.18ZM230.66 367.97C234.45 367.97 237.46 366.74 239.69 364.28C241.91 361.79 243.03 358.35 243.03 353.94V341.22C243.03 337.07 241.89 333.85 239.59 331.56C237.33 329.24 234.35 328.08 230.66 328.08C226.83 328.08 223.69 329.42 221.24 332.1C218.82 334.76 217.61 338.44 217.61 343.14V352.72C217.61 357.39 218.82 361.04 221.24 363.67C223.69 366.2 226.83 367.97 230.66 367.97Z"/>
    <path d="M275.7 379V290.63H289.92V379H275.7Z"/>
    <path d="M326.19 379V294.27H340.86V343.09L367.5 316.18H385.82L359.82 341.32L387.73 379H370.32L350.11 350.98L340.86 359.92V379H326.19Z" fill="#19B8F5"/>
    <path d="M417.2 380.18C411.71 380.18 406.88 378.99 402.72 376.62C398.56 374.23 395.31 370.81 392.97 366.34C390.65 361.86 389.49 356.49 389.49 350.23C389.49 343.87 390.72 338.37 393.19 333.72C395.67 329.05 399.16 325.45 403.68 322.91C408.19 320.33 413.53 319.04 419.72 319.04C425.74 319.04 430.88 320.22 435.14 322.57C439.43 324.92 442.72 328.19 445.03 332.39C447.38 336.58 448.55 341.41 448.55 346.87V352.06H403.94C404.27 356.77 405.83 360.32 408.63 362.71C411.45 365.06 415.08 366.24 419.51 366.24C422.84 366.24 425.74 365.56 428.22 364.18C430.7 362.81 432.55 360.87 433.77 358.38L446.01 362.29C444.15 367.03 440.93 370.92 436.34 373.96C431.79 376.99 425.41 380.18 417.2 380.18ZM404.18 342.09H434.32C433.89 337.96 432.45 334.77 429.99 332.5C427.57 330.21 424.15 329.06 419.72 329.06C415.4 329.06 411.82 330.24 408.99 332.6C406.17 334.95 404.56 338.12 404.18 342.09Z" fill="#19B8F5"/>
  </g>
</svg>
